<svg width="49" height="49" viewBox="0 0 49 49" fill="none" xmlns="http://www.w3.org/2000/svg">
<path d="M43.4189 20.9278L41.4545 29.307C39.7706 36.5436 36.443 39.4702 30.1887 38.8689C29.1864 38.7887 28.1039 38.6083 26.9413 38.3276L23.5736 37.5258C15.2145 35.5413 12.6285 31.4118 14.593 23.0327L16.5575 14.6335C16.9584 12.9296 17.4395 11.4462 18.0409 10.2234C20.3863 5.37228 24.3754 4.0693 31.0707 5.65292L34.4184 6.43471C42.8176 8.3992 45.3834 12.5487 43.4189 20.9278Z" stroke="#292D32" stroke-width="1.5" stroke-linecap="round" stroke-linejoin="round"/>
<path d="M30.1894 38.8689C28.9466 39.7108 27.383 40.4124 25.4786 41.0338L22.3114 42.0762C14.3532 44.6421 10.1636 42.4972 7.57769 34.539L5.01183 26.6209C2.44596 18.6627 4.57082 14.4531 12.529 11.8872L15.6963 10.8448C16.5181 10.5842 17.2999 10.3637 18.0416 10.2234C17.4402 11.4462 16.9591 12.9296 16.5582 14.6335L14.5937 23.0327C12.6292 31.4118 15.2152 35.5413 23.5743 37.5258L26.942 38.3277C28.1046 38.6083 29.1871 38.7887 30.1894 38.8689Z" stroke="#292D32" stroke-width="1.5" stroke-linecap="round" stroke-linejoin="round"/>
<path d="M25.3379 17.0991L35.0601 19.5647" stroke="#292D32" stroke-width="1.5" stroke-linecap="round" stroke-linejoin="round"/>
<path d="M23.373 24.8568L29.1863 26.3402" stroke="#292D32" stroke-width="1.5" stroke-linecap="round" stroke-linejoin="round"/>
</svg>
