<svg width="49" height="49" viewBox="0 0 49 49" fill="none" xmlns="http://www.w3.org/2000/svg">
<path d="M44.1007 12.0275V16.8786C44.1007 20.0458 42.0962 22.0504 38.9289 22.0504H32.0732V8.03838C32.0732 5.81329 33.8974 4.00917 36.1225 4.00917C38.3075 4.02922 40.3121 4.91123 41.7554 6.35453C43.1987 7.81788 44.1007 9.82246 44.1007 12.0275Z" stroke="#292D32" stroke-width="1.5" stroke-miterlimit="10" stroke-linecap="round" stroke-linejoin="round"/>
<path d="M4.00879 14.0321V42.0963C4.00879 43.7601 5.89311 44.7022 7.21613 43.6999L10.644 41.134C11.4458 40.5327 12.5684 40.6129 13.29 41.3345L16.6176 44.6822C17.3994 45.464 18.6824 45.464 19.4641 44.6822L22.8318 41.3145C23.5334 40.6129 24.656 40.5327 25.4378 41.134L28.8656 43.6999C30.1886 44.6822 32.073 43.74 32.073 42.0963V8.01834C32.073 5.8133 33.8771 4.00917 36.0821 4.00917H14.0317H12.0271C6.01337 4.00917 4.00879 7.59737 4.00879 12.0275V14.0321Z" stroke="#292D32" stroke-width="1.5" stroke-miterlimit="10" stroke-linecap="round" stroke-linejoin="round"/>
<path d="M12.5283 20.0458H23.5535" stroke="#292D32" stroke-width="1.5" stroke-linecap="round" stroke-linejoin="round"/>
<path d="M18.041 25.5584V14.5332" stroke="#292D32" stroke-width="1.5" stroke-linecap="round" stroke-linejoin="round"/>
</svg>
